<svg width="183" height="69" viewBox="0 0 183 69" fill="none" xmlns="http://www.w3.org/2000/svg">
<path d="M39.4013 57C37.8973 57 36.6973 56.456 35.8013 55.368C34.9373 54.28 34.6173 52.648 34.8413 50.472C35.2893 45.288 35.5133 40.136 35.5133 35.016C35.5453 29.896 35.3373 24.856 34.8893 19.896C34.6653 17.528 34.9853 15.768 35.8493 14.616C36.7133 13.464 37.8973 12.888 39.4013 12.888C40.7453 12.888 41.8493 13.368 42.7133 14.328C43.5773 15.288 44.0893 16.76 44.2493 18.744C44.6333 23.96 44.8253 29.368 44.8253 34.968C44.8253 40.568 44.6333 45.992 44.2493 51.24C44.0893 53.16 43.5773 54.6 42.7133 55.56C41.8493 56.52 40.7453 57 39.4013 57ZM22.1213 40.968C21.8973 43.176 21.5293 45.176 21.0173 46.968C20.5373 48.728 19.8813 50.232 19.0493 51.48C18.2173 52.728 17.1933 53.672 15.9773 54.312C14.7613 54.984 13.3213 55.32 11.6573 55.32C9.60925 55.32 7.89725 54.824 6.52125 53.832C5.14525 52.872 4.02525 51.496 3.16125 49.704C2.32925 47.912 1.72125 45.752 1.33725 43.224C0.98525 40.696 0.80925 37.88 0.80925 34.776C0.80925 31.672 0.96925 28.856 1.28925 26.328C1.64125 23.768 2.23325 21.608 3.06525 19.848C3.89725 18.056 5.00125 16.68 6.37725 15.72C7.78525 14.728 9.54525 14.232 11.6573 14.232C13.3853 14.232 14.8573 14.568 16.0733 15.24C17.3213 15.88 18.3613 16.824 19.1933 18.072C20.0253 19.32 20.6813 20.84 21.1613 22.632C21.6413 24.392 21.9773 26.376 22.1693 28.584H24.6653C24.6013 27.176 24.5373 25.784 24.4733 24.408C24.4093 23.032 24.3133 21.656 24.1853 20.28C23.9613 17.912 24.2653 16.184 25.0973 15.096C25.9613 13.976 27.1613 13.416 28.6973 13.416C30.0413 13.416 31.1293 13.88 31.9613 14.808C32.8253 15.736 33.3373 17.16 33.4973 19.08C33.9133 24.232 34.1213 29.56 34.1213 35.064C34.1213 40.568 33.9133 45.896 33.4973 51.048C33.3373 52.968 32.8253 54.392 31.9613 55.32C31.1293 56.248 30.0413 56.712 28.6973 56.712C27.1613 56.712 25.9613 56.168 25.0973 55.08C24.2333 53.992 23.8973 52.392 24.0893 50.28C24.3773 47.144 24.5693 44.04 24.6653 40.968H22.1213ZM11.8013 38.376C12.4413 37.384 12.8733 36.28 13.0973 35.064C13.3213 33.848 13.4493 32.632 13.4813 31.416C13.4813 31.128 13.3853 30.92 13.1933 30.792C13.0333 30.664 12.8412 30.6 12.6172 30.6C12.4253 30.6 12.2333 30.648 12.0413 30.744C11.8813 30.84 11.8013 30.984 11.8013 31.176C11.7373 32.328 11.5773 33.448 11.3213 34.536C11.0653 35.592 10.6653 36.696 10.1213 37.848C10.0253 38.008 10.0253 38.168 10.1213 38.328C10.2493 38.456 10.4093 38.568 10.6013 38.664C10.7933 38.728 11.0013 38.744 11.2253 38.712C11.4493 38.68 11.6413 38.568 11.8013 38.376ZM56.3546 30.648C54.0826 30.616 52.2106 30.072 50.7386 29.016C49.2986 27.928 48.5306 26.2 48.4346 23.832C48.3706 22.648 48.5306 21.56 48.9146 20.568C49.3306 19.576 49.9226 18.696 50.6906 17.928C51.4906 17.16 52.4346 16.504 53.5226 15.96C54.6106 15.416 55.8106 14.984 57.1226 14.664C58.8506 14.248 60.6426 13.928 62.4986 13.704C64.3866 13.48 66.2906 13.368 68.2106 13.368C70.1306 13.336 72.0186 13.432 73.8746 13.656C75.7306 13.848 77.4906 14.152 79.1546 14.568C81.4586 15.176 83.3626 16.104 84.8666 17.352C86.3706 18.568 87.3466 19.976 87.7946 21.576C88.0826 22.632 88.2906 23.784 88.4186 25.032C88.5786 26.28 88.6266 27.544 88.5626 28.824C88.5306 30.104 88.3866 31.368 88.1306 32.616C87.8746 33.864 87.5066 35.016 87.0266 36.072C86.1946 37.928 84.9146 39.368 83.1866 40.392C81.4586 41.416 79.3466 41.976 76.8506 42.072C75.5066 42.136 74.2906 42.008 73.2026 41.688C72.1146 41.368 71.1546 40.904 70.3226 40.296C69.5226 39.656 68.8666 38.904 68.3546 38.04C67.8426 37.176 67.5226 36.216 67.3946 35.16C67.0746 32.76 67.1706 30.6 67.6826 28.68C68.2266 26.76 69.0266 24.968 70.0826 23.304C70.2746 22.984 70.2106 22.744 69.8906 22.584C69.6026 22.424 69.3626 22.488 69.1706 22.776C67.3146 25.368 65.3306 27.352 63.2186 28.728C61.1386 30.072 58.8506 30.712 56.3546 30.648ZM52.9466 55.704C51.1226 55.512 49.6986 54.84 48.6746 53.688C47.6506 52.568 47.1386 50.872 47.1386 48.6C47.1386 47.704 47.2666 46.872 47.5226 46.104C47.7786 45.304 48.1626 44.632 48.6746 44.088C49.1866 43.512 49.7946 43.096 50.4986 42.84C51.2026 42.552 52.0186 42.456 52.9466 42.552C58.2906 43.096 63.5066 43.368 68.5946 43.368C73.7146 43.368 78.9626 43.096 84.3386 42.552C85.2666 42.456 86.0826 42.552 86.7866 42.84C87.5226 43.096 88.1306 43.512 88.6106 44.088C89.1226 44.632 89.5066 45.304 89.7626 46.104C90.0186 46.872 90.1466 47.704 90.1466 48.6C90.1466 50.872 89.6346 52.568 88.6106 53.688C87.6186 54.84 86.1786 55.512 84.2906 55.704C78.9146 56.248 73.6826 56.52 68.5946 56.52C63.5386 56.52 58.3226 56.248 52.9466 55.704ZM106.332 44.04C106.204 43.784 106.14 43.448 106.14 43.032C106.14 42.616 106.204 42.28 106.332 42.024C103.196 41.768 100.732 41.224 98.94 40.392C97.148 39.56 95.98 38.472 95.436 37.128C94.828 35.784 94.54 34.424 94.572 33.048C94.604 31.64 94.892 30.36 95.436 29.208C95.724 28.536 96.06 27.912 96.444 27.336C96.86 26.76 97.42 26.264 98.124 25.848C98.828 25.432 99.692 25.112 100.716 24.888C101.772 24.632 103.1 24.504 104.7 24.504C107.004 24.504 109.26 24.472 111.468 24.408C113.676 24.344 115.932 24.184 118.236 23.928C118.492 23.928 118.668 23.864 118.764 23.736C118.892 23.576 118.94 23.432 118.908 23.304C118.908 23.144 118.828 23.016 118.668 22.92C118.54 22.792 118.364 22.728 118.14 22.728C113.852 23.112 109.676 23.304 105.612 23.304C103.66 23.304 102.044 23.224 100.764 23.064C99.516 22.904 98.508 22.664 97.74 22.344C97.004 22.024 96.476 21.624 96.156 21.144C95.868 20.632 95.724 20.056 95.724 19.416C95.724 18.168 96.572 17.128 98.268 16.296C99.964 15.432 102.572 14.856 106.092 14.568C108.684 14.376 111.196 14.264 113.628 14.232C116.06 14.168 118.46 14.216 120.828 14.376C122.268 14.472 123.628 14.616 124.908 14.808C126.22 15 127.404 15.272 128.46 15.624C129.516 15.944 130.412 16.36 131.148 16.872C131.884 17.384 132.412 18.024 132.732 18.792C133.276 20.104 133.548 21.432 133.548 22.776C133.548 24.12 133.276 25.352 132.732 26.472C132.38 27.208 131.628 27.72 130.476 28.008C129.356 28.264 128.076 28.392 126.636 28.392C122.476 28.328 118.844 28.44 115.74 28.728C112.636 28.984 109.884 29.384 107.484 29.928C107.196 29.992 106.988 30.104 106.86 30.264C106.732 30.424 106.684 30.584 106.716 30.744C106.748 30.904 106.844 31.032 107.004 31.128C107.164 31.224 107.388 31.24 107.676 31.176C109.756 30.792 112.092 30.44 114.684 30.12C117.308 29.768 119.884 29.592 122.412 29.592C126.316 29.592 129.292 29.992 131.34 30.792C133.42 31.56 134.508 32.968 134.604 35.016C134.668 36.104 134.428 37.032 133.884 37.8C133.372 38.568 132.652 39.224 131.724 39.768C130.796 40.28 129.676 40.712 128.364 41.064C127.084 41.384 125.708 41.64 124.236 41.832C123.884 41.896 123.548 41.944 123.228 41.976C122.908 42.008 122.572 42.04 122.22 42.072C122.284 42.232 122.332 42.392 122.364 42.552C122.396 42.68 122.412 42.84 122.412 43.032C122.412 43.224 122.396 43.4 122.364 43.56C122.332 43.72 122.284 43.88 122.22 44.04C124.812 43.88 127.388 43.688 129.948 43.464C130.876 43.368 131.692 43.464 132.396 43.752C133.132 44.008 133.74 44.408 134.22 44.952C134.732 45.464 135.116 46.088 135.372 46.824C135.628 47.56 135.756 48.344 135.756 49.176C135.756 51.256 135.244 52.824 134.22 53.88C133.228 54.968 131.788 55.608 129.9 55.8C124.556 56.344 119.324 56.616 114.204 56.616C109.116 56.616 103.9 56.344 98.556 55.8C96.732 55.608 95.308 54.968 94.284 53.88C93.26 52.824 92.748 51.256 92.748 49.176C92.748 48.344 92.876 47.56 93.132 46.824C93.388 46.088 93.772 45.464 94.284 44.952C94.796 44.408 95.404 44.008 96.108 43.752C96.812 43.464 97.628 43.368 98.556 43.464C101.18 43.72 103.772 43.912 106.332 44.04ZM147.573 30.648C145.301 30.616 143.429 30.072 141.957 29.016C140.517 27.928 139.749 26.2 139.653 23.832C139.589 22.648 139.749 21.56 140.133 20.568C140.549 19.576 141.141 18.696 141.909 17.928C142.709 17.16 143.653 16.504 144.741 15.96C145.829 15.416 147.029 14.984 148.341 14.664C150.069 14.248 151.861 13.928 153.717 13.704C155.605 13.48 157.509 13.368 159.429 13.368C161.349 13.336 163.237 13.432 165.093 13.656C166.949 13.848 168.709 14.152 170.373 14.568C172.677 15.176 174.581 16.104 176.085 17.352C177.589 18.568 178.565 19.976 179.013 21.576C179.301 22.632 179.509 23.784 179.637 25.032C179.797 26.28 179.845 27.544 179.781 28.824C179.749 30.104 179.605 31.368 179.349 32.616C179.093 33.864 178.725 35.016 178.245 36.072C177.413 37.928 176.133 39.368 174.405 40.392C172.677 41.416 170.565 41.976 168.069 42.072C166.725 42.136 165.509 42.008 164.421 41.688C163.333 41.368 162.373 40.904 161.541 40.296C160.741 39.656 160.085 38.904 159.573 38.04C159.061 37.176 158.741 36.216 158.613 35.16C158.293 32.76 158.389 30.6 158.901 28.68C159.445 26.76 160.245 24.968 161.301 23.304C161.493 22.984 161.429 22.744 161.109 22.584C160.821 22.424 160.581 22.488 160.389 22.776C158.533 25.368 156.549 27.352 154.437 28.728C152.357 30.072 150.069 30.712 147.573 30.648ZM144.165 55.704C142.341 55.512 140.917 54.84 139.893 53.688C138.869 52.568 138.357 50.872 138.357 48.6C138.357 47.704 138.485 46.872 138.741 46.104C138.997 45.304 139.381 44.632 139.893 44.088C140.405 43.512 141.013 43.096 141.717 42.84C142.421 42.552 143.237 42.456 144.165 42.552C149.509 43.096 154.725 43.368 159.813 43.368C164.933 43.368 170.181 43.096 175.557 42.552C176.485 42.456 177.301 42.552 178.005 42.84C178.741 43.096 179.349 43.512 179.829 44.088C180.341 44.632 180.725 45.304 180.981 46.104C181.237 46.872 181.365 47.704 181.365 48.6C181.365 50.872 180.853 52.568 179.829 53.688C178.837 54.84 177.397 55.512 175.509 55.704C170.133 56.248 164.901 56.52 159.813 56.52C154.757 56.52 149.541 56.248 144.165 55.704Z" fill="url(#paint0_radial_2294_32857)"/>
<defs>
<radialGradient id="paint0_radial_2294_32857" cx="0" cy="0" r="1" gradientUnits="userSpaceOnUse" gradientTransform="translate(91.5 34.5) rotate(90) scale(34.5 91.5)">
<stop stop-color="#FF9E4F"/>
<stop offset="1" stop-color="#F9D360"/>
</radialGradient>
</defs>
</svg>
