<svg width="182" height="45" viewBox="0 0 182 45" fill="none" xmlns="http://www.w3.org/2000/svg">
<path d="M40.0253 45C38.5853 45 37.4493 44.456 36.6173 43.368C35.7853 42.28 35.4493 40.648 35.6093 38.472C36.0893 33.288 36.3293 28.136 36.3293 23.016C36.3293 17.896 36.1053 12.856 35.6573 7.896C35.4653 5.496 35.7853 3.736 36.6173 2.616C37.4493 1.464 38.5853 0.887999 40.0253 0.887999C41.3053 0.887999 42.3613 1.368 43.1933 2.328C44.0573 3.288 44.5693 4.76 44.7293 6.744C45.1133 11.96 45.3053 17.368 45.3053 22.968C45.3053 28.568 45.1133 33.992 44.7293 39.24C44.5693 41.16 44.0573 42.6 43.1933 43.56C42.3613 44.52 41.3053 45 40.0253 45ZM1.38525 33.816C1.19325 32.216 1.03325 30.44 0.90525 28.488C0.80925 26.504 0.76125 24.504 0.76125 22.488C0.76125 20.44 0.80925 18.44 0.90525 16.488C1.03325 14.536 1.19325 12.76 1.38525 11.16C1.83325 8.184 2.55325 5.96 3.54525 4.488C4.56925 3.016 5.94525 2.12 7.67325 1.8C8.37725 1.672 9.14525 1.576 9.97725 1.512C10.8413 1.448 11.7053 1.416 12.5693 1.416C13.4333 1.384 14.2813 1.4 15.1133 1.464C15.9773 1.496 16.7613 1.576 17.4653 1.704C18.1693 1.8 18.8253 1.976 19.4333 2.232C20.0733 2.456 20.6173 2.808 21.0653 3.288C21.5133 3.768 21.8653 4.392 22.1213 5.16C22.3773 5.896 22.5053 6.824 22.5053 7.944C22.5053 10.28 22.0413 11.96 21.1133 12.984C20.2173 13.976 19.0013 14.472 17.4653 14.472H10.7933C10.4093 14.472 10.1373 14.584 9.97725 14.808C9.81725 15.032 9.76925 15.272 9.83325 15.528C9.89725 15.784 10.0413 16.008 10.2653 16.2C10.5213 16.392 10.8733 16.44 11.3213 16.344C12.2173 16.152 13.0973 16.008 13.9613 15.912C14.8253 15.784 15.6253 15.72 16.3613 15.72C17.6413 15.72 18.6493 15.992 19.3853 16.536C20.1533 17.048 20.5533 18.12 20.5853 19.752C20.5853 20.744 20.4893 21.544 20.2973 22.152C20.1373 22.76 19.8653 23.24 19.4813 23.592C19.0973 23.912 18.6013 24.136 17.9933 24.264C17.3853 24.392 16.6493 24.504 15.7853 24.6C14.4733 24.696 13.2413 24.888 12.0893 25.176C10.9693 25.464 9.80125 25.944 8.58525 26.616C8.39325 26.712 8.28125 26.856 8.24925 27.048C8.21725 27.24 8.23325 27.416 8.29725 27.576C8.36125 27.736 8.47325 27.864 8.63325 27.96C8.79325 28.024 8.95325 28.008 9.11325 27.912C10.4253 27.112 11.9133 26.568 13.5773 26.28C15.2413 25.992 16.9053 25.992 18.5693 26.28C19.4333 26.44 20.2333 26.712 20.9693 27.096C21.7373 27.48 22.4093 28.008 22.9853 28.68C23.5613 29.352 24.0093 30.152 24.3293 31.08C24.6493 32.008 24.7933 33.064 24.7613 34.248C24.6973 37.384 23.8493 39.672 22.2173 41.112C20.6173 42.584 18.0893 43.32 14.6333 43.32C10.8573 43.32 7.81725 42.472 5.51325 40.776C3.20925 39.08 1.83325 36.76 1.38525 33.816ZM25.7213 14.52C25.6573 13.464 25.5933 12.424 25.5293 11.4C25.4973 10.344 25.4333 9.304 25.3373 8.28C25.1133 5.912 25.4173 4.184 26.2493 3.096C27.1133 1.976 28.2653 1.416 29.7053 1.416C30.9853 1.416 32.0413 1.88 32.8733 2.808C33.7053 3.736 34.2013 5.16 34.3613 7.08C34.7133 12.232 34.8893 17.56 34.8893 23.064C34.8893 28.568 34.7133 33.896 34.3613 39.048C34.2013 40.968 33.7053 42.392 32.8733 43.32C32.0413 44.248 30.9853 44.712 29.7053 44.712C28.2653 44.712 27.1133 44.168 26.2493 43.08C25.3853 41.992 25.0493 40.392 25.2413 38.28C25.4013 36.36 25.5293 34.44 25.6252 32.52C25.7213 30.6 25.8013 28.68 25.8653 26.76H24.4733C23.4173 26.76 22.5693 26.296 21.9293 25.368C21.2893 24.408 20.9693 22.888 20.9693 20.808C20.9693 18.696 21.2893 17.112 21.9293 16.056C22.5693 14.968 23.4173 14.44 24.4733 14.472L25.7213 14.52ZM70.4186 31.368C70.4826 30.856 70.5466 30.28 70.6106 29.64C70.7066 28.968 70.8026 28.184 70.8986 27.288C70.0346 27.512 68.9466 27.704 67.6346 27.864C66.3226 27.992 64.9626 28.088 63.5546 28.152C62.1466 28.184 60.7866 28.184 59.4746 28.152C58.1626 28.12 57.1066 28.056 56.3066 27.96C54.7066 27.8 53.4586 27.24 52.5626 26.28C51.6666 25.32 51.2186 24.248 51.2186 23.064C51.1866 21.688 51.7146 20.648 52.8026 19.944C53.9226 19.24 55.5066 18.968 57.5546 19.128C60.4026 19.352 63.3946 19.352 66.5306 19.128C69.6986 18.872 72.7866 18.2 75.7946 17.112C76.0186 17.048 76.1626 16.936 76.2266 16.776C76.3226 16.584 76.3386 16.408 76.2746 16.248C76.2426 16.088 76.1466 15.96 75.9866 15.864C75.8586 15.768 75.6826 15.768 75.4586 15.864C73.5386 16.472 71.7306 16.92 70.0346 17.208C68.3386 17.496 66.7066 17.672 65.1386 17.736C63.6026 17.8 62.0986 17.768 60.6266 17.64C59.1866 17.512 57.7306 17.336 56.2586 17.112C55.2986 16.952 54.3706 16.696 53.4746 16.344C52.5786 15.96 51.7786 15.48 51.0746 14.904C50.4026 14.328 49.8586 13.656 49.4426 12.888C49.0266 12.088 48.8186 11.208 48.8186 10.248C48.8186 8.232 49.2826 6.648 50.2106 5.496C51.1386 4.344 52.3866 3.48 53.9546 2.904C55.5546 2.328 57.3946 1.976 59.4746 1.848C61.5866 1.72 63.8106 1.656 66.1466 1.656C68.1946 1.656 70.1946 1.736 72.1466 1.896C74.0986 2.024 75.9066 2.312 77.5706 2.76C79.2346 3.176 80.6906 3.784 81.9386 4.584C83.2186 5.352 84.1946 6.376 84.8666 7.656C85.6026 9.096 86.0986 10.84 86.3546 12.888C86.6426 14.904 86.7546 17 86.6906 19.176C86.6586 21.32 86.4826 23.4 86.1626 25.416C85.8746 27.432 85.5226 29.128 85.1066 30.504C86.7386 30.536 87.9866 31.144 88.8506 32.328C89.7146 33.512 90.1466 34.936 90.1466 36.6C90.1466 38.872 89.6346 40.568 88.6106 41.688C87.6186 42.84 86.1786 43.512 84.2906 43.704C78.9146 44.248 73.6826 44.52 68.5946 44.52C63.5386 44.52 58.3226 44.248 52.9466 43.704C51.1226 43.512 49.6986 42.84 48.6746 41.688C47.6506 40.568 47.1386 38.872 47.1386 36.6C47.1386 35.704 47.2666 34.872 47.5226 34.104C47.7786 33.304 48.1626 32.632 48.6746 32.088C49.1866 31.512 49.7946 31.096 50.4986 30.84C51.2026 30.552 52.0186 30.456 52.9466 30.552C55.9546 30.872 58.8826 31.096 61.7306 31.224C64.6106 31.352 67.5066 31.4 70.4186 31.368ZM106.332 32.04C106.204 31.784 106.14 31.448 106.14 31.032C106.14 30.616 106.204 30.28 106.332 30.024C103.196 29.768 100.732 29.224 98.94 28.392C97.148 27.56 95.98 26.472 95.436 25.128C94.828 23.784 94.54 22.424 94.572 21.048C94.604 19.64 94.892 18.36 95.436 17.208C95.724 16.536 96.06 15.912 96.444 15.336C96.86 14.76 97.42 14.264 98.124 13.848C98.828 13.432 99.692 13.112 100.716 12.888C101.772 12.632 103.1 12.504 104.7 12.504C107.004 12.504 109.26 12.472 111.468 12.408C113.676 12.344 115.932 12.184 118.236 11.928C118.492 11.928 118.668 11.864 118.764 11.736C118.892 11.576 118.94 11.432 118.908 11.304C118.908 11.144 118.828 11.016 118.668 10.92C118.54 10.792 118.364 10.728 118.14 10.728C113.852 11.112 109.676 11.304 105.612 11.304C103.66 11.304 102.044 11.224 100.764 11.064C99.516 10.904 98.508 10.664 97.74 10.344C97.004 10.024 96.476 9.624 96.156 9.144C95.868 8.632 95.724 8.056 95.724 7.416C95.724 6.168 96.572 5.128 98.268 4.296C99.964 3.432 102.572 2.856 106.092 2.568C108.684 2.376 111.196 2.264 113.628 2.232C116.06 2.168 118.46 2.216 120.828 2.376C122.268 2.472 123.628 2.616 124.908 2.808C126.22 3 127.404 3.272 128.46 3.624C129.516 3.944 130.412 4.36 131.148 4.872C131.884 5.384 132.412 6.024 132.732 6.792C133.276 8.104 133.548 9.432 133.548 10.776C133.548 12.12 133.276 13.352 132.732 14.472C132.38 15.208 131.628 15.72 130.476 16.008C129.356 16.264 128.076 16.392 126.636 16.392C122.476 16.328 118.844 16.44 115.74 16.728C112.636 16.984 109.884 17.384 107.484 17.928C107.196 17.992 106.988 18.104 106.86 18.264C106.732 18.424 106.684 18.584 106.716 18.744C106.748 18.904 106.844 19.032 107.004 19.128C107.164 19.224 107.388 19.24 107.676 19.176C109.756 18.792 112.092 18.44 114.684 18.12C117.308 17.768 119.884 17.592 122.412 17.592C126.316 17.592 129.292 17.992 131.34 18.792C133.42 19.56 134.508 20.968 134.604 23.016C134.668 24.104 134.428 25.032 133.884 25.8C133.372 26.568 132.652 27.224 131.724 27.768C130.796 28.28 129.676 28.712 128.364 29.064C127.084 29.384 125.708 29.64 124.236 29.832C123.884 29.896 123.548 29.944 123.228 29.976C122.908 30.008 122.572 30.04 122.22 30.072C122.284 30.232 122.332 30.392 122.364 30.552C122.396 30.68 122.412 30.84 122.412 31.032C122.412 31.224 122.396 31.4 122.364 31.56C122.332 31.72 122.284 31.88 122.22 32.04C124.812 31.88 127.388 31.688 129.948 31.464C130.876 31.368 131.692 31.464 132.396 31.752C133.132 32.008 133.74 32.408 134.22 32.952C134.732 33.464 135.116 34.088 135.372 34.824C135.628 35.56 135.756 36.344 135.756 37.176C135.756 39.256 135.244 40.824 134.22 41.88C133.228 42.968 131.788 43.608 129.9 43.8C124.556 44.344 119.324 44.616 114.204 44.616C109.116 44.616 103.9 44.344 98.556 43.8C96.732 43.608 95.308 42.968 94.284 41.88C93.26 40.824 92.748 39.256 92.748 37.176C92.748 36.344 92.876 35.56 93.132 34.824C93.388 34.088 93.772 33.464 94.284 32.952C94.796 32.408 95.404 32.008 96.108 31.752C96.812 31.464 97.628 31.368 98.556 31.464C101.18 31.72 103.772 31.912 106.332 32.04ZM147.573 18.648C145.301 18.616 143.429 18.072 141.957 17.016C140.517 15.928 139.749 14.2 139.653 11.832C139.589 10.648 139.749 9.56 140.133 8.568C140.549 7.576 141.141 6.696 141.909 5.928C142.709 5.16 143.653 4.504 144.741 3.96C145.829 3.416 147.029 2.984 148.341 2.664C150.069 2.248 151.861 1.928 153.717 1.704C155.605 1.48 157.509 1.368 159.429 1.368C161.349 1.336 163.237 1.432 165.093 1.656C166.949 1.848 168.709 2.152 170.373 2.568C172.677 3.176 174.581 4.104 176.085 5.352C177.589 6.568 178.565 7.976 179.013 9.576C179.301 10.632 179.509 11.784 179.637 13.032C179.797 14.28 179.845 15.544 179.781 16.824C179.749 18.104 179.605 19.368 179.349 20.616C179.093 21.864 178.725 23.016 178.245 24.072C177.413 25.928 176.133 27.368 174.405 28.392C172.677 29.416 170.565 29.976 168.069 30.072C166.725 30.136 165.509 30.008 164.421 29.688C163.333 29.368 162.373 28.904 161.541 28.296C160.741 27.656 160.085 26.904 159.573 26.04C159.061 25.176 158.741 24.216 158.613 23.16C158.293 20.76 158.389 18.6 158.901 16.68C159.445 14.76 160.245 12.968 161.301 11.304C161.493 10.984 161.429 10.744 161.109 10.584C160.821 10.424 160.581 10.488 160.389 10.776C158.533 13.368 156.549 15.352 154.437 16.728C152.357 18.072 150.069 18.712 147.573 18.648ZM144.165 43.704C142.341 43.512 140.917 42.84 139.893 41.688C138.869 40.568 138.357 38.872 138.357 36.6C138.357 35.704 138.485 34.872 138.741 34.104C138.997 33.304 139.381 32.632 139.893 32.088C140.405 31.512 141.013 31.096 141.717 30.84C142.421 30.552 143.237 30.456 144.165 30.552C149.509 31.096 154.725 31.368 159.813 31.368C164.933 31.368 170.181 31.096 175.557 30.552C176.485 30.456 177.301 30.552 178.005 30.84C178.741 31.096 179.349 31.512 179.829 32.088C180.341 32.632 180.725 33.304 180.981 34.104C181.237 34.872 181.365 35.704 181.365 36.6C181.365 38.872 180.853 40.568 179.829 41.688C178.837 42.84 177.397 43.512 175.509 43.704C170.133 44.248 164.901 44.52 159.813 44.52C154.757 44.52 149.541 44.248 144.165 43.704Z" fill="url(#paint0_radial_3038_38891)"/>
<defs>
<radialGradient id="paint0_radial_3038_38891" cx="0" cy="0" r="1" gradientUnits="userSpaceOnUse" gradientTransform="translate(91.5 22.5) rotate(90) scale(34.5 91.5)">
<stop stop-color="#FF9E4F"/>
<stop offset="1" stop-color="#F9D360"/>
</radialGradient>
</defs>
</svg>
